<svg version="1.1" xmlns="http://www.w3.org/2000/svg" xmlns:xlink="http://www.w3.org/1999/xlink" width="1062.47900390625" height="652"><defs/><g><g transform="translate(-6,10) scale(1,1)"><rect fill="#ffffff" stroke="none" x="56" y="400" width="136" height="224"/></g><g transform="translate(-6,10) scale(1,1)"><path fill="none" stroke="#000000" d="M 56 400 L 192 400 L 192 624 L 56 624 L 56 400 Z Z" stroke-miterlimit="10"/></g><g transform="translate(-6,10) scale(1,1)"><path fill="#adc8ff" stroke="none" d="M 824 504 C 824 459.81721600000003 875.9349632 424 940 424 C 1004.0650368 424 1056 459.81721600000003 1056 504 C 1056 548.182784 1004.0650368 584 940 584 C 875.9349632 584 824 548.182784 824 504 Z"/></g><g transform="translate(-6,10) scale(1,1)"><path fill="none" stroke="#000000" d="M 824 504 C 824 459.81721600000003 875.9349632 424 940 424 C 1004.0650368 424 1056 459.81721600000003 1056 504 C 1056 548.182784 1004.0650368 584 940 584 C 875.9349632 584 824 548.182784 824 504 Z" stroke-miterlimit="10"/></g><g transform="translate(-6,10) scale(1,1)"><rect fill="#C0C0C0" stroke="none" x="455" y="383" width="136.83544921875" height="50" opacity="0.2"/></g><g transform="translate(-6,10) scale(1,1)"><rect fill="#ffffff" stroke="none" x="448" y="376" width="136.83544921875" height="50"/></g><g transform="translate(-6,10) scale(1,1)"><path fill="none" stroke="#000000" d="M 448 376 L 584.83544921875 376 L 584.83544921875 426 L 448 426 L 448 376 Z Z" stroke-miterlimit="10"/></g><g transform="translate(-6,10) scale(1,1)"><g><path fill="none" stroke="none"/><text fill="#000000" stroke="none" font-family="Arial" font-size="13px" font-style="normal" font-weight="bold" text-decoration="none" x="491.49365234375" y="395.5">Program</text></g></g><g transform="translate(-6,10) scale(1,1)"><rect fill="#C0C0C0" stroke="none" x="183" y="207" width="136.83544921875" height="24" opacity="0.2"/></g><g transform="translate(-6,10) scale(1,1)"><rect fill="#ffd8d8" stroke="none" x="176" y="200" width="136.83544921875" height="24"/></g><g transform="translate(-6,10) scale(1,1)"><path fill="none" stroke="#000000" d="M 176 200 L 312.83544921875 200 L 312.83544921875 224 L 176 224 L 176 200 Z Z" stroke-miterlimit="10"/></g><g transform="translate(-6,10) scale(1,1)"><g><path fill="none" stroke="none"/><text fill="#000000" stroke="none" font-family="Arial" font-size="13px" font-style="italic" font-weight="bold" text-decoration="none" x="216.964111328125" y="219.5">Algorithm</text></g></g><g transform="translate(-6,10) scale(1,1)"><rect fill="#C0C0C0" stroke="none" x="183" y="15" width="136.83544921875" height="24" opacity="0.2"/></g><g transform="translate(-6,10) scale(1,1)"><rect fill="#ffd8d8" stroke="none" x="176" y="8" width="136.83544921875" height="24"/></g><g transform="translate(-6,10) scale(1,1)"><path fill="none" stroke="#000000" d="M 176 8 L 312.83544921875 8 L 312.83544921875 32 L 176 32 L 176 8 Z Z" stroke-miterlimit="10"/></g><g transform="translate(-6,10) scale(1,1)"><g><path fill="none" stroke="none"/><text fill="#000000" stroke="none" font-family="Arial" font-size="13px" font-style="italic" font-weight="bold" text-decoration="none" x="195.293212890625" y="27.5">AlgorithmFactory</text></g></g><g transform="translate(-6,10) scale(1,1)"><rect fill="#C0C0C0" stroke="none" x="183" y="143" width="136.83544921875" height="24" opacity="0.2"/></g><g transform="translate(-6,10) scale(1,1)"><rect fill="#ffd8d8" stroke="none" x="176" y="136" width="136.83544921875" height="24"/></g><g transform="translate(-6,10) scale(1,1)"><path fill="none" stroke="#000000" d="M 176 136 L 312.83544921875 136 L 312.83544921875 160 L 176 160 L 176 136 Z Z" stroke-miterlimit="10"/></g><g transform="translate(-6,10) scale(1,1)"><g><path fill="none" stroke="none"/><text fill="#000000" stroke="none" font-family="Arial" font-size="13px" font-style="normal" font-weight="bold" text-decoration="none" x="186.609619140625" y="155.5">AlphabeticAlgorithm</text></g></g><g transform="translate(-6,10) scale(1,1)"><rect fill="#C0C0C0" stroke="none" x="183" y="71" width="136.83544921875" height="24" opacity="0.2"/></g><g transform="translate(-6,10) scale(1,1)"><rect fill="#ffd8d8" stroke="none" x="176" y="64" width="136.83544921875" height="24"/></g><g transform="translate(-6,10) scale(1,1)"><path fill="none" stroke="#000000" d="M 176 64 L 312.83544921875 64 L 312.83544921875 88 L 176 88 L 176 64 Z Z" stroke-miterlimit="10"/></g><g transform="translate(-6,10) scale(1,1)"><g><path fill="none" stroke="none"/><text fill="#000000" stroke="none" font-family="Arial" font-size="13px" font-style="normal" font-weight="bold" text-decoration="none" x="192.392333984375" y="83.5">AlphabeticFactory</text></g></g><g transform="translate(-6,10) scale(1,1)"><rect fill="#C0C0C0" stroke="none" x="335" y="143" width="136.83544921875" height="24" opacity="0.2"/></g><g transform="translate(-6,10) scale(1,1)"><rect fill="#ffd8d8" stroke="none" x="328" y="136" width="136.83544921875" height="24"/></g><g transform="translate(-6,10) scale(1,1)"><path fill="none" stroke="#000000" d="M 328 136 L 464.83544921875 136 L 464.83544921875 160 L 328 160 L 328 136 Z Z" stroke-miterlimit="10"/></g><g transform="translate(-6,10) scale(1,1)"><g><path fill="none" stroke="none"/><text fill="#000000" stroke="none" font-family="Arial" font-size="13px" font-style="normal" font-weight="bold" text-decoration="none" x="344.766845703125" y="155.5">NumericAlgorithm</text></g></g><g transform="translate(-6,10) scale(1,1)"><rect fill="#C0C0C0" stroke="none" x="335" y="71" width="136.83544921875" height="24" opacity="0.2"/></g><g transform="translate(-6,10) scale(1,1)"><rect fill="#ffd8d8" stroke="none" x="328" y="64" width="136.83544921875" height="24"/></g><g transform="translate(-6,10) scale(1,1)"><path fill="none" stroke="#000000" d="M 328 64 L 464.83544921875 64 L 464.83544921875 88 L 328 88 L 328 64 Z Z" stroke-miterlimit="10"/></g><g transform="translate(-6,10) scale(1,1)"><g><path fill="none" stroke="none"/><text fill="#000000" stroke="none" font-family="Arial" font-size="13px" font-style="normal" font-weight="bold" text-decoration="none" x="350.549560546875" y="83.5">NumericFactory</text></g></g><g transform="translate(-6,10) scale(1,1)"><rect fill="#C0C0C0" stroke="none" x="31" y="143" width="136.83544921875" height="24" opacity="0.2"/></g><g transform="translate(-6,10) scale(1,1)"><rect fill="#ffd8d8" stroke="none" x="24" y="136" width="136.83544921875" height="24"/></g><g transform="translate(-6,10) scale(1,1)"><path fill="none" stroke="#000000" d="M 24 136 L 160.83544921875 136 L 160.83544921875 160 L 24 160 L 24 136 Z Z" stroke-miterlimit="10"/></g><g transform="translate(-6,10) scale(1,1)"><g><path fill="none" stroke="none"/><text fill="#000000" stroke="none" font-family="Arial" font-size="13px" font-style="normal" font-weight="bold" text-decoration="none" x="40.3955078125" y="155.5">RandomAlgorithm</text></g></g><g transform="translate(-6,10) scale(1,1)"><rect fill="#C0C0C0" stroke="none" x="23" y="71" width="136.83544921875" height="24" opacity="0.2"/></g><g transform="translate(-6,10) scale(1,1)"><rect fill="#ffd8d8" stroke="none" x="16" y="64" width="136.83544921875" height="24"/></g><g transform="translate(-6,10) scale(1,1)"><path fill="none" stroke="#000000" d="M 16 64 L 152.83544921875 64 L 152.83544921875 88 L 16 88 L 16 64 Z Z" stroke-miterlimit="10"/></g><g transform="translate(-6,10) scale(1,1)"><g><path fill="none" stroke="none"/><text fill="#000000" stroke="none" font-family="Arial" font-size="13px" font-style="normal" font-weight="bold" text-decoration="none" x="38.17822265625" y="83.5">RandomFactory</text></g></g><g transform="translate(-6,10) scale(1,1)"><path fill="none" stroke="#000000" d="M 123 161 L 213 199" stroke-miterlimit="10"/></g><g transform="translate(-6,10) scale(1,1)"><path fill="#FFFFFF" stroke="none" d="M 191.00051109626423 198.85004009066844 L 213 199 L 197.55004988232469 183.33797454473577"/></g><g transform="translate(-6,10) scale(1,1)"><path fill="none" stroke="#000000" d="M 191.00051109626423 198.85004009066844 L 213 199 L 197.55004988232469 183.33797454473577 L 191.00051109626423 198.85004009066844" stroke-miterlimit="10"/></g><g transform="translate(-6,10) scale(1,1)"><path fill="none" stroke="#000000" d="M 244 161 L 244 199" stroke-miterlimit="10"/></g><g transform="translate(-6,10) scale(1,1)"><path fill="#FFFFFF" stroke="none" d="M 235.58096448796803 178.6746502847517 L 244 199 L 252.41903551203197 178.6746502847517"/></g><g transform="translate(-6,10) scale(1,1)"><path fill="none" stroke="#000000" d="M 235.58096448796803 178.6746502847517 L 244 199 L 252.41903551203197 178.6746502847517 L 235.58096448796803 178.6746502847517" stroke-miterlimit="10"/></g><g transform="translate(-6,10) scale(1,1)"><path fill="none" stroke="#000000" d="M 365 161 L 275 199" stroke-miterlimit="10"/></g><g transform="translate(-6,10) scale(1,1)"><path fill="#FFFFFF" stroke="none" d="M 290.4499501176753 183.33797454473577 L 275 199 L 296.99948890373577 198.85004009066844"/></g><g transform="translate(-6,10) scale(1,1)"><path fill="none" stroke="#000000" d="M 290.4499501176753 183.33797454473577 L 275 199 L 296.99948890373577 198.85004009066844 L 290.4499501176753 183.33797454473577" stroke-miterlimit="10"/></g><g transform="translate(-6,10) scale(1,1)"><path fill="none" stroke="#000000" d="M 85 89 L 91 135" stroke-miterlimit="10"/></g><g transform="translate(-6,10) scale(1,1)"><path fill="none" stroke="#000000" d="M 85.51140838820773 125.4671430243099 L 91 135 L 93.85972746373002 124.37823184054612" stroke-miterlimit="10"/></g><g transform="translate(-6,10) scale(1,1)"><path fill="none" stroke="#000000" d="M 244 89 L 244 135" stroke-miterlimit="10"/></g><g transform="translate(-6,10) scale(1,1)"><path fill="none" stroke="#000000" d="M 239.790482243984 124.83732514237585 L 244 135 L 248.209517756016 124.83732514237585" stroke-miterlimit="10"/></g><g transform="translate(-6,10) scale(1,1)"><path fill="none" stroke="#000000" d="M 396 89 L 396 135" stroke-miterlimit="10"/></g><g transform="translate(-6,10) scale(1,1)"><path fill="none" stroke="#000000" d="M 391.790482243984 124.83732514237585 L 396 135 L 400.209517756016 124.83732514237585" stroke-miterlimit="10"/></g><g transform="translate(-6,10) scale(1,1)"><path fill="none" stroke="#000000" d="M 121 63 L 207 33" stroke-miterlimit="10"/></g><g transform="translate(-6,10) scale(1,1)"><path fill="#FFFFFF" stroke="none" d="M 190.58179699163196 47.64385912169379 L 207 33 L 185.03580523019542 31.745349405575734"/></g><g transform="translate(-6,10) scale(1,1)"><path fill="none" stroke="#000000" d="M 190.58179699163196 47.64385912169379 L 207 33 L 185.03580523019542 31.745349405575734 L 190.58179699163196 47.64385912169379" stroke-miterlimit="10"/></g><g transform="translate(-6,10) scale(1,1)"><path fill="none" stroke="#000000" d="M 244 63 L 244 33" stroke-miterlimit="10"/></g><g transform="translate(-6,10) scale(1,1)"><path fill="#FFFFFF" stroke="none" d="M 252.41903551203197 53.32534971524831 L 244 33 L 235.58096448796803 53.32534971524831"/></g><g transform="translate(-6,10) scale(1,1)"><path fill="none" stroke="#000000" d="M 252.41903551203197 53.32534971524831 L 244 33 L 235.58096448796803 53.32534971524831 L 252.41903551203197 53.32534971524831" stroke-miterlimit="10"/></g><g transform="translate(-6,10) scale(1,1)"><path fill="none" stroke="#000000" d="M 361 63 L 279 33" stroke-miterlimit="10"/></g><g transform="translate(-6,10) scale(1,1)"><path fill="#FFFFFF" stroke="none" d="M 300.980625507913 32.07690613647007 L 279 33 L 295.1953752819409 47.889923420793544"/></g><g transform="translate(-6,10) scale(1,1)"><path fill="none" stroke="#000000" d="M 300.980625507913 32.07690613647007 L 279 33 L 295.1953752819409 47.889923420793544 L 300.980625507913 32.07690613647007" stroke-miterlimit="10"/></g><g transform="translate(-6,10) scale(1,1)"><rect fill="#C0C0C0" stroke="none" x="679" y="231" width="94.20458984375" height="24" opacity="0.2"/></g><g transform="translate(-6,10) scale(1,1)"><rect fill="#d8d8ff" stroke="none" x="672" y="224" width="94.20458984375" height="24"/></g><g transform="translate(-6,10) scale(1,1)"><path fill="none" stroke="#000000" d="M 672 224 L 766.20458984375 224 L 766.20458984375 248 L 672 248 L 672 224 Z Z" stroke-miterlimit="10"/></g><g transform="translate(-6,10) scale(1,1)"><g><path fill="none" stroke="none"/><text fill="#000000" stroke="none" font-family="Arial" font-size="13px" font-style="normal" font-weight="bold" text-decoration="none" x="680.438720703125" y="243.5">Configuration</text></g></g><g transform="translate(-6,10) scale(1,1)"><rect fill="#C0C0C0" stroke="none" x="663" y="119" width="142.59912109375" height="24" opacity="0.2"/></g><g transform="translate(-6,10) scale(1,1)"><rect fill="#d8d8ff" stroke="none" x="656" y="112" width="142.59912109375" height="24"/></g><g transform="translate(-6,10) scale(1,1)"><path fill="none" stroke="#000000" d="M 656 112 L 798.59912109375 112 L 798.59912109375 136 L 656 136 L 656 112 Z Z" stroke-miterlimit="10"/></g><g transform="translate(-6,10) scale(1,1)"><g><path fill="none" stroke="none"/><text fill="#000000" stroke="none" font-family="Arial" font-size="13px" font-style="italic" font-weight="bold" text-decoration="none" x="666.596923828125" y="131.5">IConfigurationBuilder</text></g></g><g transform="translate(-6,10) scale(1,1)"><rect fill="#C0C0C0" stroke="none" x="647" y="183" width="165.7109375" height="24" opacity="0.2"/></g><g transform="translate(-6,10) scale(1,1)"><rect fill="#d8d8ff" stroke="none" x="640" y="176" width="165.7109375" height="24"/></g><g transform="translate(-6,10) scale(1,1)"><path fill="none" stroke="#000000" d="M 640 176 L 805.7109375 176 L 805.7109375 200 L 640 200 L 640 176 Z Z" stroke-miterlimit="10"/></g><g transform="translate(-6,10) scale(1,1)"><g><path fill="none" stroke="none"/><text fill="#000000" stroke="none" font-family="Arial" font-size="13px" font-style="normal" font-weight="bold" text-decoration="none" x="651.67919921875" y="195.5">ConfigurationBuilderImpl</text></g></g><g transform="translate(-6,10) scale(1,1)"><rect fill="#C0C0C0" stroke="none" x="631" y="55" width="188.83544921875" height="24" opacity="0.2"/></g><g transform="translate(-6,10) scale(1,1)"><rect fill="#d8d8ff" stroke="none" x="624" y="48" width="188.83544921875" height="24"/></g><g transform="translate(-6,10) scale(1,1)"><path fill="none" stroke="#000000" d="M 624 48 L 812.83544921875 48 L 812.83544921875 72 L 624 72 L 624 48 Z Z" stroke-miterlimit="10"/></g><g transform="translate(-6,10) scale(1,1)"><g><path fill="none" stroke="none"/><text fill="#000000" stroke="none" font-family="Arial" font-size="13px" font-style="normal" font-weight="bold" text-decoration="none" x="636.767822265625" y="67.5">ConfigurationBuilderDirector</text></g></g><g transform="translate(-6,10) scale(1,1)"><path fill="none" stroke="#000000" d="M 725 111 L 720 73" stroke-miterlimit="10"/></g><g transform="translate(-6,10) scale(1,1)"><path fill="#FFFFFF" stroke="none" d="M 725.4993112563375 82.52667705477201 L 720 73 L 717.1522223336082 83.62497822881534 L 722.8699992765705 94.81199450193597"/></g><g transform="translate(-6,10) scale(1,1)"><path fill="none" stroke="#000000" d="M 725.4993112563375 82.52667705477201 L 720 73 L 717.1522223336082 83.62497822881534 L 722.8699992765705 94.81199450193597 L 725.4993112563375 82.52667705477201" stroke-miterlimit="10"/></g><g transform="translate(-6,10) scale(1,1)"><path fill="none" stroke="#000000" d="M 723 175 L 726 137" stroke-miterlimit="10"/></g><g transform="translate(-6,10) scale(1,1)"><path fill="#FFFFFF" stroke="none" d="M 732.7932653757715 157.9249025215016 L 726 137 L 716.0074235449865 156.5997044822291"/></g><g transform="translate(-6,10) scale(1,1)"><path fill="none" stroke="#000000" d="M 732.7932653757715 157.9249025215016 L 726 137 L 716.0074235449865 156.5997044822291 L 732.7932653757715 157.9249025215016" stroke-miterlimit="10"/></g><g transform="translate(-6,10) scale(1,1)"><path fill="none" stroke="#000000" d="M 721 201 L 720 223" stroke-miterlimit="10"/></g><g transform="translate(-6,10) scale(1,1)"><path fill="none" stroke="#000000" d="M 716.2562874862449 212.6566631779511 L 720 223 L 724.6666391016781 213.0389518877435" stroke-miterlimit="10"/></g><g transform="translate(-6,10) scale(1,1)"><rect fill="#C0C0C0" stroke="none" x="959" y="535" width="70.38818359375" height="24" opacity="0.2"/></g><g transform="translate(-6,10) scale(1,1)"><rect fill="#d8ffd8" stroke="none" x="952" y="528" width="70.38818359375" height="24"/></g><g transform="translate(-6,10) scale(1,1)"><path fill="none" stroke="#000000" d="M 952 528 L 1022.38818359375 528 L 1022.38818359375 552 L 952 552 L 952 528 Z Z" stroke-miterlimit="10"/></g><g transform="translate(-6,10) scale(1,1)"><g><path fill="none" stroke="none"/><text fill="#000000" stroke="none" font-family="Arial" font-size="13px" font-style="normal" font-weight="bold" text-decoration="none" x="962.9873046875" y="547.5">Actuator</text></g></g><g transform="translate(-6,10) scale(1,1)"><rect fill="#C0C0C0" stroke="none" x="927" y="447" width="50.919921875" height="24" opacity="0.2"/></g><g transform="translate(-6,10) scale(1,1)"><rect fill="#d8ffd8" stroke="none" x="920" y="440" width="50.919921875" height="24"/></g><g transform="translate(-6,10) scale(1,1)"><path fill="none" stroke="#000000" d="M 920 440 L 970.919921875 440 L 970.919921875 464 L 920 464 L 920 440 Z Z" stroke-miterlimit="10"/></g><g transform="translate(-6,10) scale(1,1)"><g><path fill="none" stroke="none"/><text fill="#000000" stroke="none" font-family="Arial" font-size="13px" font-style="italic" font-weight="bold" text-decoration="none" x="925.591796875" y="459.5">Device</text></g></g><g transform="translate(-6,10) scale(1,1)"><rect fill="#C0C0C0" stroke="none" x="903" y="615" width="97.15625" height="24" opacity="0.2"/></g><g transform="translate(-6,10) scale(1,1)"><rect fill="#d8ffd8" stroke="none" x="896" y="608" width="97.15625" height="24"/></g><g transform="translate(-6,10) scale(1,1)"><path fill="none" stroke="#000000" d="M 896 608 L 993.15625 608 L 993.15625 632 L 896 632 L 896 608 Z Z" stroke-miterlimit="10"/></g><g transform="translate(-6,10) scale(1,1)"><g><path fill="none" stroke="none"/><text fill="#000000" stroke="none" font-family="Arial" font-size="13px" font-style="normal" font-weight="bold" text-decoration="none" x="903.035888671875" y="627.5">DeviceCreator</text></g></g><g transform="translate(-6,10) scale(1,1)"><rect fill="#C0C0C0" stroke="none" x="871" y="535" width="53.07177734375" height="24" opacity="0.2"/></g><g transform="translate(-6,10) scale(1,1)"><rect fill="#d8ffd8" stroke="none" x="864" y="528" width="53.07177734375" height="24"/></g><g transform="translate(-6,10) scale(1,1)"><path fill="none" stroke="#000000" d="M 864 528 L 917.07177734375 528 L 917.07177734375 552 L 864 552 L 864 528 Z Z" stroke-miterlimit="10"/></g><g transform="translate(-6,10) scale(1,1)"><g><path fill="none" stroke="none"/><text fill="#000000" stroke="none" font-family="Arial" font-size="13px" font-style="normal" font-weight="bold" text-decoration="none" x="869.94091796875" y="547.5">Sensor</text></g></g><g transform="translate(-6,10) scale(1,1)"><rect fill="#C0C0C0" stroke="none" x="647" y="439" width="85.5400390625" height="24" opacity="0.2"/></g><g transform="translate(-6,10) scale(1,1)"><rect fill="#ffffff" stroke="none" x="640" y="432" width="85.5400390625" height="24"/></g><g transform="translate(-6,10) scale(1,1)"><path fill="none" stroke="#000000" d="M 640 432 L 725.5400390625 432 L 725.5400390625 456 L 640 456 L 640 432 Z Z" stroke-miterlimit="10"/></g><g transform="translate(-6,10) scale(1,1)"><g><path fill="none" stroke="none"/><text fill="#000000" stroke="none" font-family="Arial" font-size="13px" font-style="normal" font-weight="bold" text-decoration="none" x="647.369140625" y="451.5">ThingsOfFoi</text></g></g><g transform="translate(-6,10) scale(1,1)"><path fill="none" stroke="#000000" d="M 898 527 L 937 465" stroke-miterlimit="10"/></g><g transform="translate(-6,10) scale(1,1)"><path fill="#FFFFFF" stroke="none" d="M 933.3041279432673 486.68733569944135 L 937 465 L 919.0513616673423 477.7218859452305"/></g><g transform="translate(-6,10) scale(1,1)"><path fill="none" stroke="#000000" d="M 933.3041279432673 486.68733569944135 L 937 465 L 919.0513616673423 477.7218859452305 L 933.3041279432673 486.68733569944135" stroke-miterlimit="10"/></g><g transform="translate(-6,10) scale(1,1)"><path fill="none" stroke="#000000" d="M 981 527 L 951 465" stroke-miterlimit="10"/></g><g transform="translate(-6,10) scale(1,1)"><path fill="#FFFFFF" stroke="none" d="M 967.431400890169 479.6290486630729 L 951 465 L 952.2744554818663 486.96305450579996"/></g><g transform="translate(-6,10) scale(1,1)"><path fill="none" stroke="#000000" d="M 967.431400890169 479.6290486630729 L 951 465 L 952.2744554818663 486.96305450579996 L 967.431400890169 479.6290486630729" stroke-miterlimit="10"/></g><g transform="translate(-6,10) scale(1,1)"><path fill="none" stroke="#000000" d="M 935 607 L 899 553" stroke-miterlimit="10"/></g><g transform="translate(-6,10) scale(1,1)"><path fill="none" stroke="#000000" d="M 908.1397682256109 559.1208362812703 L 899 553 L 901.1347072497838 563.7908769318217" stroke-miterlimit="10"/></g><g transform="translate(-6,10) scale(1,1)"><path fill="none" stroke="#000000" d="M 951 607 L 980 553" stroke-miterlimit="10"/></g><g transform="translate(-6,10) scale(1,1)"><path fill="none" stroke="#000000" d="M 978.900329505049 563.9448949196661 L 980 553 L 971.4832061188791 559.9616249530195" stroke-miterlimit="10"/></g><g transform="translate(-6,10) scale(1,1)"><rect fill="#C0C0C0" stroke="none" x="431" y="503" width="70.4072265625" height="24" opacity="0.2"/></g><g transform="translate(-6,10) scale(1,1)"><rect fill="#ffffff" stroke="none" x="424" y="496" width="70.4072265625" height="24"/></g><g transform="translate(-6,10) scale(1,1)"><path fill="none" stroke="#000000" d="M 424 496 L 494.4072265625 496 L 494.4072265625 520 L 424 520 L 424 496 Z Z" stroke-miterlimit="10"/></g><g transform="translate(-6,10) scale(1,1)"><g><path fill="none" stroke="none"/><text fill="#000000" stroke="none" font-family="Arial" font-size="13px" font-style="normal" font-weight="bold" text-decoration="none" x="430.66455078125" y="515.5">Converter</text></g></g><g transform="translate(-6,10) scale(1,1)"><rect fill="#C0C0C0" stroke="none" x="527" y="503" width="50.919921875" height="24" opacity="0.2"/></g><g transform="translate(-6,10) scale(1,1)"><rect fill="#ffffff" stroke="none" x="520" y="496" width="50.919921875" height="24"/></g><g transform="translate(-6,10) scale(1,1)"><path fill="none" stroke="#000000" d="M 520 496 L 570.919921875 496 L 570.919921875 520 L 520 520 L 520 496 Z Z" stroke-miterlimit="10"/></g><g transform="translate(-6,10) scale(1,1)"><g><path fill="none" stroke="none"/><text fill="#000000" stroke="none" font-family="Arial" font-size="13px" font-style="normal" font-weight="bold" text-decoration="none" x="532.094970703125" y="515.5">CSV</text></g></g><g transform="translate(-6,10) scale(1,1)"><rect fill="#C0C0C0" stroke="none" x="359" y="455" width="51.5927734375" height="24" opacity="0.2"/></g><g transform="translate(-6,10) scale(1,1)"><rect fill="#fff5d8" stroke="none" x="352" y="448" width="51.5927734375" height="24"/></g><g transform="translate(-6,10) scale(1,1)"><path fill="none" stroke="#000000" d="M 352 448 L 403.5927734375 448 L 403.5927734375 472 L 352 472 L 352 448 Z Z" stroke-miterlimit="10"/></g><g transform="translate(-6,10) scale(1,1)"><g><path fill="none" stroke="none"/><text fill="#000000" stroke="none" font-family="Arial" font-size="13px" font-style="normal" font-weight="bold" text-decoration="none" x="358.28369140625" y="467.5">Output</text></g></g><g transform="translate(-6,10) scale(1,1)"><rect fill="#C0C0C0" stroke="none" x="279" y="359" width="123.130859375" height="24" opacity="0.2"/></g><g transform="translate(-6,10) scale(1,1)"><rect fill="#fff5d8" stroke="none" x="272" y="352" width="123.130859375" height="24"/></g><g transform="translate(-6,10) scale(1,1)"><path fill="none" stroke="#000000" d="M 272 352 L 395.130859375 352 L 395.130859375 376 L 272 376 L 272 352 Z Z" stroke-miterlimit="10"/></g><g transform="translate(-6,10) scale(1,1)"><g><path fill="none" stroke="none"/><text fill="#000000" stroke="none" font-family="Arial" font-size="13px" font-style="normal" font-weight="bold" text-decoration="none" x="279.73095703125" y="371.5">RandomGenerator</text></g></g><g transform="translate(-6,10) scale(1,1)"><rect fill="#C0C0C0" stroke="none" x="687" y="359" width="50.919921875" height="24" opacity="0.2"/></g><g transform="translate(-6,10) scale(1,1)"><rect fill="#ffffff" stroke="none" x="680" y="352" width="50.919921875" height="24"/></g><g transform="translate(-6,10) scale(1,1)"><path fill="none" stroke="#000000" d="M 680 352 L 730.919921875 352 L 730.919921875 376 L 680 376 L 680 352 Z Z" stroke-miterlimit="10"/></g><g transform="translate(-6,10) scale(1,1)"><g><path fill="none" stroke="none"/><text fill="#000000" stroke="none" font-family="Arial" font-size="13px" font-style="normal" font-weight="bold" text-decoration="none" x="694.627685546875" y="371.5">FOI</text></g></g><g transform="translate(-6,10) scale(1,1)"><rect fill="#C0C0C0" stroke="none" x="959" y="159" width="91.3671875" height="24" opacity="0.2"/></g><g transform="translate(-6,10) scale(1,1)"><rect fill="#d8d8ff" stroke="none" x="952" y="152" width="91.3671875" height="24"/></g><g transform="translate(-6,10) scale(1,1)"><path fill="none" stroke="#000000" d="M 952 152 L 1043.3671875 152 L 1043.3671875 176 L 952 176 L 952 152 Z Z" stroke-miterlimit="10"/></g><g transform="translate(-6,10) scale(1,1)"><g><path fill="none" stroke="none"/><text fill="#000000" stroke="none" font-family="Arial" font-size="13px" font-style="italic" font-weight="bold" text-decoration="none" x="959.385009765625" y="171.5">IPlaceBuilder</text></g></g><g transform="translate(-6,10) scale(1,1)"><rect fill="#C0C0C0" stroke="none" x="983" y="287" width="50.919921875" height="24" opacity="0.2"/></g><g transform="translate(-6,10) scale(1,1)"><rect fill="#d8d8ff" stroke="none" x="976" y="280" width="50.919921875" height="24"/></g><g transform="translate(-6,10) scale(1,1)"><path fill="none" stroke="#000000" d="M 976 280 L 1026.919921875 280 L 1026.919921875 304 L 976 304 L 976 280 Z Z" stroke-miterlimit="10"/></g><g transform="translate(-6,10) scale(1,1)"><g><path fill="none" stroke="none"/><text fill="#000000" stroke="none" font-family="Arial" font-size="13px" font-style="normal" font-weight="bold" text-decoration="none" x="985.200439453125" y="299.5">Place</text></g></g><g transform="translate(-6,10) scale(1,1)"><rect fill="#C0C0C0" stroke="none" x="935" y="103" width="125.314453125" height="24" opacity="0.2"/></g><g transform="translate(-6,10) scale(1,1)"><rect fill="#d8d8ff" stroke="none" x="928" y="96" width="125.314453125" height="24"/></g><g transform="translate(-6,10) scale(1,1)"><path fill="none" stroke="#000000" d="M 928 96 L 1053.314453125 96 L 1053.314453125 120 L 928 120 L 928 96 Z Z" stroke-miterlimit="10"/></g><g transform="translate(-6,10) scale(1,1)"><g><path fill="none" stroke="none"/><text fill="#000000" stroke="none" font-family="Arial" font-size="13px" font-style="normal" font-weight="bold" text-decoration="none" x="937.19091796875" y="115.5">PlaceBuildDirector</text></g></g><g transform="translate(-6,10) scale(1,1)"><rect fill="#C0C0C0" stroke="none" x="951" y="231" width="114.47900390625" height="24" opacity="0.2"/></g><g transform="translate(-6,10) scale(1,1)"><rect fill="#d8d8ff" stroke="none" x="944" y="224" width="114.47900390625" height="24"/></g><g transform="translate(-6,10) scale(1,1)"><path fill="none" stroke="#000000" d="M 944 224 L 1058.47900390625 224 L 1058.47900390625 248 L 944 248 L 944 224 Z Z" stroke-miterlimit="10"/></g><g transform="translate(-6,10) scale(1,1)"><g><path fill="none" stroke="none"/><text fill="#000000" stroke="none" font-family="Arial" font-size="13px" font-style="normal" font-weight="bold" text-decoration="none" x="952.46728515625" y="243.5">PlaceBuilderImpl</text></g></g><g transform="translate(-6,10) scale(1,1)"><path fill="none" stroke="#000000" d="M 995 151 L 992 121" stroke-miterlimit="10"/></g><g transform="translate(-6,10) scale(1,1)"><path fill="#FFFFFF" stroke="none" d="M 997.19985066362 130.69337676333953 L 992 121 L 988.8225972234496 131.53110210735656 L 994.189081818462 142.89081818461977"/></g><g transform="translate(-6,10) scale(1,1)"><path fill="none" stroke="#000000" d="M 997.19985066362 130.69337676333953 L 992 121 L 988.8225972234496 131.53110210735656 L 994.189081818462 142.89081818461977 L 997.19985066362 130.69337676333953" stroke-miterlimit="10"/></g><g transform="translate(-6,10) scale(1,1)"><path fill="none" stroke="#000000" d="M 1001 249 L 1001 279" stroke-miterlimit="10"/></g><g transform="translate(-6,10) scale(1,1)"><path fill="none" stroke="#000000" d="M 996.790482243984 268.83732514237585 L 1001 279 L 1005.209517756016 268.83732514237585" stroke-miterlimit="10"/></g><g transform="translate(-6,10) scale(1,1)"><path fill="none" stroke="#000000" d="M 1000 223 L 998 177" stroke-miterlimit="10"/></g><g transform="translate(-6,10) scale(1,1)"><path fill="#FFFFFF" stroke="none" d="M 1007.2939660497811 196.94046627001276 L 998 177 L 990.4717874983701 197.67186533746542"/></g><g transform="translate(-6,10) scale(1,1)"><path fill="none" stroke="#000000" d="M 1007.2939660497811 196.94046627001276 L 998 177 L 990.4717874983701 197.67186533746542 L 1007.2939660497811 196.94046627001276" stroke-miterlimit="10"/></g><g transform="translate(-6,10) scale(1,1)"><path fill="none" stroke="#000000" d="M 975 298 L 732 357" stroke-miterlimit="10"/></g><g transform="translate(-6,10) scale(1,1)"><path fill="#FFFFFF" stroke="none" d="M 740.8825422168147 350.5115145244437 L 732 357 L 742.8689579150818 358.6928537562892 L 753.3788696868389 351.80924563159056"/></g><g transform="translate(-6,10) scale(1,1)"><path fill="none" stroke="#000000" d="M 740.8825422168147 350.5115145244437 L 732 357 L 742.8689579150818 358.6928537562892 L 753.3788696868389 351.80924563159056 L 740.8825422168147 350.5115145244437" stroke-miterlimit="10"/></g><g transform="translate(-6,10) scale(1,1)"><path fill="none" stroke="#000000" d="M 919 451 L 727 445" stroke-miterlimit="10"/></g><g transform="translate(-6,10) scale(1,1)"><path fill="#FFFFFF" stroke="none" d="M 737.2891994902807 441.1099648010322 L 727 445 L 737.0262330008031 449.5248924643141 L 748.9892656739157 445.68716455230987"/></g><g transform="translate(-6,10) scale(1,1)"><path fill="none" stroke="#000000" d="M 737.2891994902807 441.1099648010322 L 727 445 L 737.0262330008031 449.5248924643141 L 748.9892656739157 445.68716455230987 L 737.2891994902807 441.1099648010322" stroke-miterlimit="10"/></g><g transform="translate(-6,10) scale(1,1)"><path fill="none" stroke="#000000" d="M 950 439 L 996 305" stroke-miterlimit="10"/></g><g transform="translate(-6,10) scale(1,1)"><path fill="#FFFFFF" stroke="none" d="M 996.681784846724 315.97885100649324 L 996 305 L 988.7188746921006 313.24531468475686 L 988.8569253577497 325.80808700133775"/></g><g transform="translate(-6,10) scale(1,1)"><path fill="none" stroke="#000000" d="M 996.681784846724 315.97885100649324 L 996 305 L 988.7188746921006 313.24531468475686 L 988.8569253577497 325.80808700133775 L 996.681784846724 315.97885100649324" stroke-miterlimit="10"/></g><g transform="translate(-6,10) scale(1,1)"><path fill="none" stroke="#000000" d="M 639 433 L 586 419" stroke-miterlimit="10"/></g><g transform="translate(-6,10) scale(1,1)"><path fill="#FFFFFF" stroke="none" d="M 596.900731893066 417.52553596330904 L 586 419 L 594.7505849604432 425.66537792252353 L 607.2704320877128 424.6186047024147"/></g><g transform="translate(-6,10) scale(1,1)"><path fill="none" stroke="#000000" d="M 596.900731893066 417.52553596330904 L 586 419 L 594.7505849604432 425.66537792252353 L 607.2704320877128 424.6186047024147 L 596.900731893066 417.52553596330904" stroke-miterlimit="10"/></g><g transform="translate(-6,10) scale(1,1)"><path fill="none" stroke="#000000" d="M 679 369 L 586 387" stroke-miterlimit="10"/></g><g transform="translate(-6,10) scale(1,1)"><path fill="#FFFFFF" stroke="none" d="M 595.1776088135948 380.9360494341868 L 586 387 L 596.7774099930368 389.2016888613038 L 607.5991567129862 382.81951805555104"/></g><g transform="translate(-6,10) scale(1,1)"><path fill="none" stroke="#000000" d="M 595.1776088135948 380.9360494341868 L 586 387 L 596.7774099930368 389.2016888613038 L 607.5991567129862 382.81951805555104 L 595.1776088135948 380.9360494341868" stroke-miterlimit="10"/></g><g transform="translate(-6,10) scale(1,1)"><path fill="none" stroke="#000000" d="M 703 249 L 548 375" stroke-miterlimit="10"/></g><g transform="translate(-6,10) scale(1,1)"><path fill="#FFFFFF" stroke="none" d="M 553.2305536485239 365.3231560656424 L 548 375 L 558.5411219206994 371.85599798776315 L 565.0711386216694 361.1228163462558"/></g><g transform="translate(-6,10) scale(1,1)"><path fill="none" stroke="#000000" d="M 553.2305536485239 365.3231560656424 L 548 375 L 558.5411219206994 371.85599798776315 L 565.0711386216694 361.1228163462558 L 553.2305536485239 365.3231560656424" stroke-miterlimit="10"/></g><g transform="translate(-6,10) scale(1,1)"><path fill="none" stroke="#000000" d="M 405 448 L 455 427" stroke-miterlimit="10"/></g><g transform="translate(-6,10) scale(1,1)"><path fill="#FFFFFF" stroke="none" d="M 447.2602576547636 434.816417877094 L 455 427 L 444.0001336175657 427.05421778852764 L 434.71639367663806 435.519114655812"/></g><g transform="translate(-6,10) scale(1,1)"><path fill="none" stroke="#000000" d="M 447.2602576547636 434.816417877094 L 455 427 L 444.0001336175657 427.05421778852764 L 434.71639367663806 435.519114655812 L 447.2602576547636 434.816417877094" stroke-miterlimit="10"/></g><g transform="translate(-6,10) scale(1,1)"><path fill="none" stroke="#000000" d="M 396 377 L 447 387" stroke-miterlimit="10"/></g><g transform="translate(-6,10) scale(1,1)"><path fill="#FFFFFF" stroke="none" d="M 436.2172553397957 389.1754120512759 L 447 387 L 437.8371995176344 380.91369674429865 L 425.41109750710257 382.76688186413776"/></g><g transform="translate(-6,10) scale(1,1)"><path fill="none" stroke="#000000" d="M 436.2172553397957 389.1754120512759 L 447 387 L 437.8371995176344 380.91369674429865 L 425.41109750710257 382.76688186413776 L 436.2172553397957 389.1754120512759" stroke-miterlimit="10"/></g><g transform="translate(-6,10) scale(1,1)"><path fill="none" stroke="#000000" d="M 671 73 Q 528 112 517 375" stroke-miterlimit="10"/></g><g transform="translate(-6,10) scale(1,1)"><path fill="#FFFFFF" stroke="none" d="M 513.2188429028083 364.6702927918378 L 517 375 L 521.6305241904072 365.02211216128114 L 517.9193483168815 353.0192175145595"/></g><g transform="translate(-6,10) scale(1,1)"><path fill="none" stroke="#000000" d="M 513.2188429028083 364.6702927918378 L 517 375 L 521.6305241904072 365.02211216128114 L 517.9193483168815 353.0192175145595 L 513.2188429028083 364.6702927918378" stroke-miterlimit="10"/></g><g transform="translate(-6,10) scale(1,1)"><path fill="none" stroke="#000000" d="M 655 133 Q 632 136 527 375" stroke-miterlimit="10"/></g><g transform="translate(-6,10) scale(1,1)"><path fill="#FFFFFF" stroke="none" d="M 527.2336970306624 364.00248274846274 L 527 375 L 534.9416677799026 367.3888297303465 L 535.8489511055004 354.85810176938475"/></g><g transform="translate(-6,10) scale(1,1)"><path fill="none" stroke="#000000" d="M 527.2336970306624 364.00248274846274 L 527 375 L 534.9416677799026 367.3888297303465 L 535.8489511055004 354.85810176938475 L 527.2336970306624 364.00248274846274" stroke-miterlimit="10"/></g><g transform="translate(-6,10) scale(1,1)"><path fill="none" stroke="#000000" d="M 919 607 L 567 427" stroke-miterlimit="10"/></g><g transform="translate(-6,10) scale(1,1)"><path fill="#FFFFFF" stroke="none" d="M 577.964820479948 427.8790402962959 L 567 427 L 574.1317235614174 435.37487427031147 L 586.5875581226217 437.0163649490679"/></g><g transform="translate(-6,10) scale(1,1)"><path fill="none" stroke="#000000" d="M 577.964820479948 427.8790402962959 L 567 427 L 574.1317235614174 435.37487427031147 L 586.5875581226217 437.0163649490679 L 577.964820479948 427.8790402962959" stroke-miterlimit="10"/></g><g transform="translate(-6,10) scale(1,1)"><path fill="none" stroke="#000000" d="M 969 121 L 558 375" stroke-miterlimit="10"/></g><g transform="translate(-6,10) scale(1,1)"><path fill="#FFFFFF" stroke="none" d="M 564.4320011832781 366.07647150627577 L 558 375 L 568.8579991633196 373.2382241432721 L 576.7145615182103 363.4343099133202"/></g><g transform="translate(-6,10) scale(1,1)"><path fill="none" stroke="#000000" d="M 564.4320011832781 366.07647150627577 L 558 375 L 568.8579991633196 373.2382241432721 L 576.7145615182103 363.4343099133202 L 564.4320011832781 366.07647150627577" stroke-miterlimit="10"/></g><g transform="translate(-6,10) scale(1,1)"><path fill="none" stroke="#000000" d="M 971 177 L 569 375" stroke-miterlimit="10"/></g><g transform="translate(-6,10) scale(1,1)"><path fill="#FFFFFF" stroke="none" d="M 576.256849493916 366.73331170161526 L 569 375 L 579.9767988409415 374.28593613345487 L 588.7359587405242 365.27930390392095"/></g><g transform="translate(-6,10) scale(1,1)"><path fill="none" stroke="#000000" d="M 576.256849493916 366.73331170161526 L 569 375 L 579.9767988409415 374.28593613345487 L 588.7359587405242 365.27930390392095 L 576.256849493916 366.73331170161526" stroke-miterlimit="10"/></g><g transform="translate(-6,10) scale(1,1)"><path fill="none" stroke="#000000" d="M 314 15 Q 552 0 518 375" stroke-miterlimit="10"/></g><g transform="translate(-6,10) scale(1,1)"><path fill="#FFFFFF" stroke="none" d="M 514.7253301705415 364.4987363851756 L 518 375 L 523.1099734705127 365.25894404437304 L 519.9865183462454 353.08987118111736"/></g><g transform="translate(-6,10) scale(1,1)"><path fill="none" stroke="#000000" d="M 514.7253301705415 364.4987363851756 L 518 375 L 523.1099734705127 365.25894404437304 L 519.9865183462454 353.08987118111736 L 514.7253301705415 364.4987363851756" stroke-miterlimit="10"/></g><g transform="translate(-6,10) scale(1,1)"><path fill="none" stroke="#000000" d="M 263 225 L 479 375" stroke-miterlimit="10"/></g><g transform="translate(-6,10) scale(1,1)"><path fill="#FFFFFF" stroke="none" d="M 468.2515928130166 372.66082430270745 L 479 375 L 473.05377538907214 365.7456813931875 L 460.9298607551875 362.4512921911024"/></g><g transform="translate(-6,10) scale(1,1)"><path fill="none" stroke="#000000" d="M 468.2515928130166 372.66082430270745 L 479 375 L 473.05377538907214 365.7456813931875 L 460.9298607551875 362.4512921911024 L 468.2515928130166 372.66082430270745" stroke-miterlimit="10"/></g><g transform="translate(-6,10) scale(1,1)"><path fill="#ffffff" stroke="none" d="M 440 560 L 498 560 L 508 570 L 508 598 L 440 598 L 440 560"/></g><g transform="translate(-6,10) scale(1,1)"><path fill="none" stroke="#000000" d="M 440 560 L 498 560 L 508 570 L 508 598 L 440 598 L 440 560 L 440 560" stroke-miterlimit="10"/></g><g transform="translate(-6,10) scale(1,1)"><path fill="none" stroke="#000000" d="M 498 560 L 498 570 L 508 570 L 498 560" stroke-miterlimit="10"/></g><g transform="translate(-6,10) scale(1,1)"><g><path fill="none" stroke="none"/><text fill="#000000" stroke="none" font-family="Arial" font-size="13px" font-style="normal" font-weight="normal" text-decoration="none" x="445" y="578">Static</text><text fill="#000000" stroke="none" font-family="Arial" font-size="13px" font-style="normal" font-weight="normal" text-decoration="none" x="445" y="591">Classes</text></g></g><g transform="translate(-6,10) scale(1,1)"><path fill="none" stroke="#000000" d="M 470 559 L 462 521" stroke-miterlimit="10" stroke-dasharray="3"/></g><g transform="translate(-6,10) scale(1,1)"><path fill="none" stroke="#000000" d="M 494 559 L 532 521" stroke-miterlimit="10" stroke-dasharray="3"/></g><g transform="translate(-6,10) scale(1,1)"><path fill="#ffd8d8" stroke="none" d="M 64 432 L 173 432 L 183 442 L 183 455 L 64 455 L 64 432"/></g><g transform="translate(-6,10) scale(1,1)"><path fill="none" stroke="#000000" d="M 64 432 L 173 432 L 183 442 L 183 455 L 64 455 L 64 432 L 64 432" stroke-miterlimit="10"/></g><g transform="translate(-6,10) scale(1,1)"><path fill="none" stroke="#000000" d="M 173 432 L 173 442 L 183 442 L 173 432" stroke-miterlimit="10"/></g><g transform="translate(-6,10) scale(1,1)"><g><path fill="none" stroke="none"/><text fill="#000000" stroke="none" font-family="Arial" font-size="13px" font-style="normal" font-weight="normal" text-decoration="none" x="69" y="450">Abstract Factory</text></g></g><g transform="translate(-6,10) scale(1,1)"><path fill="#fff5d8" stroke="none" d="M 64 464 L 126.208984375 464 L 136.208984375 474 L 136.208984375 487 L 64 487 L 64 464"/></g><g transform="translate(-6,10) scale(1,1)"><path fill="none" stroke="#000000" d="M 64 464 L 126.208984375 464 L 136.208984375 474 L 136.208984375 487 L 64 487 L 64 464 L 64 464" stroke-miterlimit="10"/></g><g transform="translate(-6,10) scale(1,1)"><path fill="none" stroke="#000000" d="M 126.208984375 464 L 126.208984375 474 L 136.208984375 474 L 126.208984375 464" stroke-miterlimit="10"/></g><g transform="translate(-6,10) scale(1,1)"><g><path fill="none" stroke="none"/><text fill="#000000" stroke="none" font-family="Arial" font-size="13px" font-style="normal" font-weight="normal" text-decoration="none" x="69" y="482">Singleton</text></g></g><g transform="translate(-6,10) scale(1,1)"><path fill="#d8d8ff" stroke="none" d="M 64 496 L 122 496 L 132 506 L 132 519 L 64 519 L 64 496"/></g><g transform="translate(-6,10) scale(1,1)"><path fill="none" stroke="#000000" d="M 64 496 L 122 496 L 132 506 L 132 519 L 64 519 L 64 496 L 64 496" stroke-miterlimit="10"/></g><g transform="translate(-6,10) scale(1,1)"><path fill="none" stroke="#000000" d="M 122 496 L 122 506 L 132 506 L 122 496" stroke-miterlimit="10"/></g><g transform="translate(-6,10) scale(1,1)"><g><path fill="none" stroke="none"/><text fill="#000000" stroke="none" font-family="Arial" font-size="13px" font-style="normal" font-weight="normal" text-decoration="none" x="69" y="514">Builder</text></g></g><g transform="translate(-6,10) scale(1,1)"><g><path fill="none" stroke="none"/><text fill="#000000" stroke="none" font-family="Arial" font-size="16px" font-style="normal" font-weight="normal" text-decoration="none" x="61" y="421">Legenda</text></g></g><g transform="translate(-6,10) scale(1,1)"><path fill="#d8ffd8" stroke="none" d="M 64 528 L 165 528 L 175 538 L 175 551 L 64 551 L 64 528"/></g><g transform="translate(-6,10) scale(1,1)"><path fill="none" stroke="#000000" d="M 64 528 L 165 528 L 175 538 L 175 551 L 64 551 L 64 528 L 64 528" stroke-miterlimit="10"/></g><g transform="translate(-6,10) scale(1,1)"><path fill="none" stroke="#000000" d="M 165 528 L 165 538 L 175 538 L 165 528" stroke-miterlimit="10"/></g><g transform="translate(-6,10) scale(1,1)"><g><path fill="none" stroke="none"/><text fill="#000000" stroke="none" font-family="Arial" font-size="13px" font-style="normal" font-weight="normal" text-decoration="none" x="69" y="546">Factory Method</text></g></g><g transform="translate(-6,10) scale(1,1)"><path fill="#adc8ff" stroke="none" d="M 64 560 L 127.6435546875 560 L 137.6435546875 570 L 137.6435546875 583 L 64 583 L 64 560"/></g><g transform="translate(-6,10) scale(1,1)"><path fill="none" stroke="#000000" d="M 64 560 L 127.6435546875 560 L 137.6435546875 570 L 137.6435546875 583 L 64 583 L 64 560 L 64 560" stroke-miterlimit="10"/></g><g transform="translate(-6,10) scale(1,1)"><path fill="none" stroke="#000000" d="M 127.6435546875 560 L 127.6435546875 570 L 137.6435546875 570 L 127.6435546875 560" stroke-miterlimit="10"/></g><g transform="translate(-6,10) scale(1,1)"><g><path fill="none" stroke="none"/><text fill="#000000" stroke="none" font-family="Arial" font-size="13px" font-style="normal" font-weight="normal" text-decoration="none" x="69" y="578">Prototype</text></g></g><g transform="translate(-6,10) scale(1,1)"><path fill="#ffffff" stroke="none" d="M 64 592 L 165 592 L 175 602 L 175 615 L 64 615 L 64 592"/></g><g transform="translate(-6,10) scale(1,1)"><path fill="none" stroke="#000000" d="M 64 592 L 165 592 L 175 602 L 175 615 L 64 615 L 64 592 L 64 592" stroke-miterlimit="10"/></g><g transform="translate(-6,10) scale(1,1)"><path fill="none" stroke="#000000" d="M 165 592 L 165 602 L 175 602 L 165 592" stroke-miterlimit="10"/></g><g transform="translate(-6,10) scale(1,1)"><g><path fill="none" stroke="none"/><text fill="#000000" stroke="none" font-family="Arial" font-size="13px" font-style="normal" font-weight="normal" text-decoration="none" x="69" y="610">Bez Uzorka</text></g></g></g></svg>